<svg width="11" height="4" viewBox="0 0 11 4" fill="none" xmlns="http://www.w3.org/2000/svg">
<path d="M9.33284 3.33317C8.59647 3.33317 7.99951 2.73622 7.99951 1.99984C7.99951 1.26346 8.59647 0.666504 9.33284 0.666504C10.0692 0.666504 10.6662 1.26346 10.6662 1.99984C10.6662 2.35346 10.5257 2.6926 10.2757 2.94265C10.0256 3.19269 9.68647 3.33317 9.33284 3.33317ZM5.33284 3.33317C4.59647 3.33317 3.99951 2.73622 3.99951 1.99984C3.99951 1.26346 4.59647 0.666504 5.33284 0.666504C6.06922 0.666504 6.66618 1.26346 6.66618 1.99984C6.66618 2.35346 6.5257 2.6926 6.27565 2.94265C6.02561 3.19269 5.68647 3.33317 5.33284 3.33317ZM1.33284 3.33317C0.596465 3.33317 -0.000488281 2.73622 -0.000488281 1.99984C-0.000488281 1.26346 0.596465 0.666504 1.33284 0.666504C2.06922 0.666504 2.66618 1.26346 2.66618 1.99984C2.66618 2.35346 2.5257 2.6926 2.27565 2.94265C2.02561 3.19269 1.68647 3.33317 1.33284 3.33317Z" fill="white"/>
</svg>
