<svg width="24" height="24" viewBox="0 0 13 13" fill="current" xmlns="http://www.w3.org/2000/svg">
<path d="M0.946662 12.2194C0.759651 12.2191 0.581374 12.1403 0.455329 12.0021C0.326959 11.8651 0.263172 11.6798 0.279996 11.4928L0.443329 9.69677L7.98866 2.1541L10.3467 4.51143L2.80333 12.0534L1.00733 12.2168C0.986662 12.2188 0.965996 12.2194 0.946662 12.2194ZM10.8173 4.0401L8.46 1.68277L9.87399 0.268767C9.99904 0.143582 10.1687 0.0732422 10.3457 0.0732422C10.5226 0.0732422 10.6923 0.143582 10.8173 0.268767L12.2313 1.68277C12.3565 1.80781 12.4269 1.97749 12.4269 2.15443C12.4269 2.33137 12.3565 2.50105 12.2313 2.6261L10.818 4.03943L10.8173 4.0401Z" fill="current"/>
</svg>
