<svg width="56" height="56" viewBox="0 0 56 56" fill="none" xmlns="http://www.w3.org/2000/svg">
<path d="M28 0C33.5379 6.60385e-08 38.9514 1.64217 43.556 4.71885C48.1605 7.79553 51.7494 12.1685 53.8686 17.2849C55.9879 22.4012 56.5424 28.0311 55.462 33.4625C54.3816 38.894 51.7149 43.8831 47.799 47.799C43.8831 51.7149 38.894 54.3816 33.4625 55.462C28.0311 56.5424 22.4012 55.9879 17.2849 53.8686C12.1685 51.7494 7.79553 48.1605 4.71885 43.556C1.64217 38.9514 -1.32077e-07 33.5379 0 28H7C7 32.1534 8.23163 36.2135 10.5391 39.667C12.8466 43.1204 16.1264 45.812 19.9636 47.4015C23.8009 48.9909 28.0233 49.4068 32.0969 48.5965C36.1705 47.7862 39.9123 45.7861 42.8492 42.8492C45.7861 39.9123 47.7862 36.1705 48.5965 32.0969C49.4068 28.0233 48.9909 23.8009 47.4015 19.9636C45.812 16.1264 43.1204 12.8466 39.667 10.5391C36.2135 8.23163 32.1534 7 28 7V0Z" fill="#28C76F"/>
</svg>
